<?xml version="1.0" encoding="UTF-8" standalone="no"?>
<!DOCTYPE svg PUBLIC "-//W3C//DTD SVG 1.1//EN" "http://www.w3.org/Graphics/SVG/1.1/DTD/svg11.dtd">
<svg xmlns:xlink="http://www.w3.org/1999/xlink" version="1.1" viewBox="-0.5 -0.5 141 141" width="141" height="141" preserveAspectRatio="xMinYMin meet" xmlns="http://www.w3.org/2000/svg">
  <symbol id="$E2$96$88" viewBox="0,0,20,20" overflowBox="-0.5 -0.5 21 21" style="overflow: visible">
    <rect width="20" height="20" stroke="black" fill="purple"/>
  </symbol>
  <symbol id="$F0$9F$98$8A" viewBox="-10,-10,20,20">
    <circle r="6" fill="red"/>
    <circle cx="-2" cy="-2" r="1" fill="white"/>
    <circle cx="2" cy="-2" r="1" fill="white"/>
    <path d="M -3 1 Q 0 4, 3 1" fill="none" stroke="white"/>
  </symbol>
  <symbol id="$20" viewBox="-10,-10,20,20"/>
  <symbol id="$F0$9F$91$8D$F0$9F$8F$BD" viewBox="-10,-10,20,20">
    <line x1="-5" y1="-5" x2="5" y2="5" stroke="green" stroke-width="2" stroke-linecap="round"/>
    <line x1="-5" y1="5" x2="5" y2="-5" stroke="green" stroke-width="2" stroke-linecap="round"/>
  </symbol>
  <use xlink:href="#$E2$96$88" x="0" y="0" data-r="0" data-c="0" width="20" height="20"/>
  <use xlink:href="#$E2$96$88" x="20" y="0" data-r="0" data-c="1" width="20" height="20"/>
  <use xlink:href="#$E2$96$88" x="40" y="0" data-r="0" data-c="2" width="20" height="20"/>
  <use xlink:href="#$E2$96$88" x="60" y="0" data-r="0" data-c="3" width="20" height="20"/>
  <use xlink:href="#$E2$96$88" x="80" y="0" data-r="0" data-c="4" width="20" height="20"/>
  <use xlink:href="#$E2$96$88" x="100" y="0" data-r="0" data-c="5" width="20" height="20"/>
  <use xlink:href="#$E2$96$88" x="120" y="0" data-r="0" data-c="6" width="20" height="20"/>
  <use xlink:href="#$E2$96$88" x="0" y="20" data-r="1" data-c="0" width="20" height="20"/>
  <use xlink:href="#$F0$9F$98$8A" x="20" y="20" data-r="1" data-c="1" width="20" height="20"/>
  <use xlink:href="#$20" x="40" y="20" data-r="1" data-c="2" width="20" height="20"/>
  <use xlink:href="#$E2$96$88" x="60" y="20" data-r="1" data-c="3" width="20" height="20"/>
  <use xlink:href="#$20" x="80" y="20" data-r="1" data-c="4" width="20" height="20"/>
  <use xlink:href="#$20" x="100" y="20" data-r="1" data-c="5" width="20" height="20"/>
  <use xlink:href="#$F0$9F$91$8D$F0$9F$8F$BD" x="120" y="20" data-r="1" data-c="6" width="20" height="20"/>
  <use xlink:href="#$E2$96$88" x="0" y="40" data-r="2" data-c="0" width="20" height="20"/>
  <use xlink:href="#$E2$96$88" x="20" y="40" data-r="2" data-c="1" width="20" height="20"/>
  <use xlink:href="#$20" x="40" y="40" data-r="2" data-c="2" width="20" height="20"/>
  <use xlink:href="#$E2$96$88" x="60" y="40" data-r="2" data-c="3" width="20" height="20"/>
  <use xlink:href="#$20" x="80" y="40" data-r="2" data-c="4" width="20" height="20"/>
  <use xlink:href="#$E2$96$88" x="100" y="40" data-r="2" data-c="5" width="20" height="20"/>
  <use xlink:href="#$E2$96$88" x="120" y="40" data-r="2" data-c="6" width="20" height="20"/>
  <use xlink:href="#$E2$96$88" x="0" y="60" data-r="3" data-c="0" width="20" height="20"/>
  <use xlink:href="#$20" x="20" y="60" data-r="3" data-c="1" width="20" height="20"/>
  <use xlink:href="#$20" x="40" y="60" data-r="3" data-c="2" width="20" height="20"/>
  <use xlink:href="#$E2$96$88" x="60" y="60" data-r="3" data-c="3" width="20" height="20"/>
  <use xlink:href="#$20" x="80" y="60" data-r="3" data-c="4" width="20" height="20"/>
  <use xlink:href="#$20" x="100" y="60" data-r="3" data-c="5" width="20" height="20"/>
  <use xlink:href="#$E2$96$88" x="120" y="60" data-r="3" data-c="6" width="20" height="20"/>
  <use xlink:href="#$E2$96$88" x="0" y="80" data-r="4" data-c="0" width="20" height="20"/>
  <use xlink:href="#$20" x="20" y="80" data-r="4" data-c="1" width="20" height="20"/>
  <use xlink:href="#$E2$96$88" x="40" y="80" data-r="4" data-c="2" width="20" height="20"/>
  <use xlink:href="#$E2$96$88" x="60" y="80" data-r="4" data-c="3" width="20" height="20"/>
  <use xlink:href="#$E2$96$88" x="80" y="80" data-r="4" data-c="4" width="20" height="20"/>
  <use xlink:href="#$20" x="100" y="80" data-r="4" data-c="5" width="20" height="20"/>
  <use xlink:href="#$E2$96$88" x="120" y="80" data-r="4" data-c="6" width="20" height="20"/>
  <use xlink:href="#$E2$96$88" x="0" y="100" data-r="5" data-c="0" width="20" height="20"/>
  <use xlink:href="#$20" x="20" y="100" data-r="5" data-c="1" width="20" height="20"/>
  <use xlink:href="#$20" x="40" y="100" data-r="5" data-c="2" width="20" height="20"/>
  <use xlink:href="#$20" x="60" y="100" data-r="5" data-c="3" width="20" height="20"/>
  <use xlink:href="#$20" x="80" y="100" data-r="5" data-c="4" width="20" height="20"/>
  <use xlink:href="#$20" x="100" y="100" data-r="5" data-c="5" width="20" height="20"/>
  <use xlink:href="#$E2$96$88" x="120" y="100" data-r="5" data-c="6" width="20" height="20"/>
  <use xlink:href="#$E2$96$88" x="0" y="120" data-r="6" data-c="0" width="20" height="20"/>
  <use xlink:href="#$E2$96$88" x="20" y="120" data-r="6" data-c="1" width="20" height="20"/>
  <use xlink:href="#$E2$96$88" x="40" y="120" data-r="6" data-c="2" width="20" height="20"/>
  <use xlink:href="#$E2$96$88" x="60" y="120" data-r="6" data-c="3" width="20" height="20"/>
  <use xlink:href="#$E2$96$88" x="80" y="120" data-r="6" data-c="4" width="20" height="20"/>
  <use xlink:href="#$E2$96$88" x="100" y="120" data-r="6" data-c="5" width="20" height="20"/>
  <use xlink:href="#$E2$96$88" x="120" y="120" data-r="6" data-c="6" width="20" height="20"/>
</svg>